<svg xmlns="http://www.w3.org/2000/svg" xmlns:xlink="http://www.w3.org/1999/xlink" width="500" zoomAndPan="magnify" viewBox="0 0 375 374.999991" height="500" preserveAspectRatio="xMidYMid meet" version="1.0"><defs><g/><clipPath id="837ed2c131"><path d="M 45 173 L 110 173 L 110 202 L 45 202 Z M 45 173 " clip-rule="nonzero"/></clipPath><clipPath id="27c42a9888"><path d="M 77.1875 147.8125 L 116.960938 187.585938 L 77.1875 227.359375 L 37.410156 187.585938 Z M 77.1875 147.8125 " clip-rule="nonzero"/></clipPath><clipPath id="a119bac724"><path d="M 77.1875 147.8125 L 116.960938 187.585938 L 77.1875 227.359375 L 37.410156 187.585938 Z M 77.1875 147.8125 " clip-rule="nonzero"/></clipPath></defs><g clip-path="url(#837ed2c131)"><g clip-path="url(#27c42a9888)"><g clip-path="url(#a119bac724)"><path fill="#ffffff" d="M 94.890625 201.652344 L 80.730469 201.648438 C 72.910156 201.652344 66.566406 195.3125 66.570312 187.492188 C 66.566406 186.261719 66.777344 185.085938 67.070312 183.949219 L 73.648438 183.949219 C 73.964844 183.949219 74.246094 184.050781 74.539062 184.128906 C 73.988281 185.136719 73.648438 186.269531 73.648438 187.492188 C 73.648438 191.394531 76.828125 194.570312 80.730469 194.570312 L 94.886719 194.570312 C 98.792969 194.570312 101.96875 191.394531 101.96875 187.488281 C 101.96875 183.585938 98.792969 180.410156 94.890625 180.410156 L 89.851562 180.414062 C 88.605469 177.574219 86.617188 175.160156 84.160156 173.332031 L 94.890625 173.332031 C 102.710938 173.332031 109.050781 179.671875 109.050781 187.492188 C 109.050781 195.3125 102.710938 201.652344 94.890625 201.652344 Z M 64.527344 194.570312 L 59.488281 194.574219 C 55.585938 194.570312 52.410156 191.394531 52.40625 187.492188 C 52.410156 183.585938 55.585938 180.410156 59.488281 180.410156 L 73.648438 180.410156 C 77.554688 180.410156 80.730469 183.585938 80.730469 187.492188 C 80.730469 188.710938 80.390625 189.84375 79.84375 190.847656 C 80.136719 190.925781 80.417969 191.03125 80.730469 191.03125 L 87.308594 191.03125 C 87.605469 189.894531 87.808594 188.722656 87.808594 187.492188 C 87.808594 179.671875 81.46875 173.332031 73.648438 173.332031 L 59.488281 173.332031 C 51.667969 173.332031 45.328125 179.671875 45.328125 187.492188 C 45.328125 195.3125 51.667969 201.652344 59.488281 201.652344 L 70.21875 201.652344 C 67.761719 199.824219 65.773438 197.40625 64.527344 194.570312 Z M 64.527344 194.570312 " fill-opacity="1" fill-rule="nonzero"/></g></g></g><g fill="#ffffff" fill-opacity="1"><g transform="translate(116.882032, 199.467789)"><g><path d="M 16.558594 0.34375 C 25.070312 0.34375 30.910156 -3.683594 31.832031 -10.960938 L 24.640625 -10.960938 C 23.90625 -7.089844 20.941406 -5.394531 16.558594 -5.394531 C 11.523438 -5.394531 8.355469 -7.671875 8.355469 -13.015625 C 8.355469 -18.339844 11.523438 -20.617188 16.558594 -20.617188 C 20.359375 -20.617188 23.101562 -19.351562 24.230469 -16.492188 L 31.578125 -16.492188 C 30.121094 -22.878906 24.503906 -26.371094 16.558594 -26.371094 C 7.347656 -26.371094 1.214844 -21.59375 1.214844 -13.015625 C 1.214844 -4.453125 7.347656 0.34375 16.558594 0.34375 Z M 16.558594 0.34375 "/></g></g></g><g fill="#ffffff" fill-opacity="1"><g transform="translate(149.684642, 199.467789)"><g><path d="M 16.558594 0.34375 C 25.839844 0.34375 31.953125 -4.453125 31.953125 -13.015625 C 31.953125 -21.59375 25.839844 -26.371094 16.558594 -26.371094 C 7.347656 -26.371094 1.214844 -21.59375 1.214844 -13.015625 C 1.214844 -4.453125 7.347656 0.34375 16.558594 0.34375 Z M 16.558594 -5.394531 C 11.523438 -5.394531 8.355469 -7.671875 8.355469 -13.015625 C 8.355469 -18.339844 11.523438 -20.617188 16.558594 -20.617188 C 21.644531 -20.617188 24.828125 -18.339844 24.828125 -13.015625 C 24.828125 -7.671875 21.644531 -5.394531 16.558594 -5.394531 Z M 16.558594 -5.394531 "/></g></g></g><g fill="#ffffff" fill-opacity="1"><g transform="translate(182.829659, 199.467789)"><g><path d="M 22.65625 -26.011719 L 22.65625 -8.871094 L 12.894531 -26.011719 L 2.960938 -26.011719 L 2.960938 0 L 10.308594 0 L 10.308594 -17.277344 L 20.121094 0 L 30 0 L 30 -26.011719 Z M 22.65625 -26.011719 "/></g></g></g><g fill="#ffffff" fill-opacity="1"><g transform="translate(215.786353, 199.467789)"><g><path d="M 22.65625 -26.011719 L 22.65625 -8.871094 L 12.894531 -26.011719 L 2.960938 -26.011719 L 2.960938 0 L 10.308594 0 L 10.308594 -17.277344 L 20.121094 0 L 30 0 L 30 -26.011719 Z M 22.65625 -26.011719 "/></g></g></g><g fill="#ffffff" fill-opacity="1"><g transform="translate(248.743046, 199.467789)"><g><path d="M 10.394531 -5.90625 L 10.394531 -10.789062 L 19.28125 -10.789062 L 19.28125 -15.925781 L 10.394531 -15.925781 L 10.394531 -20.136719 L 25.328125 -20.136719 L 25.328125 -26.011719 L 2.960938 -26.011719 L 2.960938 0 L 26.183594 0 L 26.183594 -5.90625 Z M 10.394531 -5.90625 "/></g></g></g><g fill="#ffffff" fill-opacity="1"><g transform="translate(276.238344, 199.467789)"><g><path d="M 16.558594 0.34375 C 25.070312 0.34375 30.910156 -3.683594 31.832031 -10.960938 L 24.640625 -10.960938 C 23.90625 -7.089844 20.941406 -5.394531 16.558594 -5.394531 C 11.523438 -5.394531 8.355469 -7.671875 8.355469 -13.015625 C 8.355469 -18.339844 11.523438 -20.617188 16.558594 -20.617188 C 20.359375 -20.617188 23.101562 -19.351562 24.230469 -16.492188 L 31.578125 -16.492188 C 30.121094 -22.878906 24.503906 -26.371094 16.558594 -26.371094 C 7.347656 -26.371094 1.214844 -21.59375 1.214844 -13.015625 C 1.214844 -4.453125 7.347656 0.34375 16.558594 0.34375 Z M 16.558594 0.34375 "/></g></g></g><g fill="#ffffff" fill-opacity="1"><g transform="translate(309.040954, 199.467789)"><g><path d="M 25.207031 -26.011719 L 0.597656 -26.011719 L 0.597656 -20.136719 L 9.230469 -20.136719 L 9.230469 0 L 16.574219 0 L 16.574219 -20.136719 L 25.207031 -20.136719 Z M 25.207031 -26.011719 "/></g></g></g></svg>