<svg xmlns="http://www.w3.org/2000/svg" xmlns:xlink="http://www.w3.org/1999/xlink" width="500" zoomAndPan="magnify" viewBox="0 0 375 374.999991" height="500" preserveAspectRatio="xMidYMid meet" version="1.0"><defs><clipPath id="c39ec4aa76"><path d="M 67 133 L 308 133 L 308 242 L 67 242 Z M 67 133 " clip-rule="nonzero"/></clipPath><clipPath id="aeb7011acc"><path d="M 187.496094 37.503906 L 337.578125 187.585938 L 187.496094 337.667969 L 37.410156 187.585938 Z M 187.496094 37.503906 " clip-rule="nonzero"/></clipPath><clipPath id="822711029e"><path d="M 187.496094 37.503906 L 337.578125 187.585938 L 187.496094 337.667969 L 37.410156 187.585938 Z M 187.496094 37.503906 " clip-rule="nonzero"/></clipPath></defs><g clip-path="url(#c39ec4aa76)"><g clip-path="url(#aeb7011acc)"><g clip-path="url(#822711029e)"><path fill="#ffffff" d="M 254.414062 241.003906 L 200.886719 240.996094 C 171.332031 241.003906 147.363281 217.035156 147.371094 187.480469 C 147.363281 182.832031 148.15625 178.394531 149.257812 174.097656 L 174.128906 174.097656 C 175.316406 174.09375 176.390625 174.484375 177.488281 174.777344 C 175.410156 178.574219 174.128906 182.859375 174.128906 187.476562 C 174.125 202.238281 186.140625 214.238281 200.886719 214.234375 L 254.40625 214.234375 C 269.167969 214.234375 281.171875 202.234375 281.167969 187.472656 C 281.171875 172.722656 269.167969 160.71875 254.410156 160.714844 L 235.367188 160.726562 C 230.652344 149.996094 223.140625 140.867188 213.855469 133.957031 L 254.410156 133.957031 C 283.972656 133.960938 307.929688 157.921875 307.933594 187.480469 C 307.929688 217.035156 283.964844 241 254.414062 241.003906 Z M 139.652344 214.242188 L 120.605469 214.246094 C 105.855469 214.242188 93.847656 202.234375 93.84375 187.484375 C 93.847656 172.722656 105.847656 160.71875 120.609375 160.714844 L 174.128906 160.722656 C 188.894531 160.722656 200.894531 172.71875 200.886719 187.480469 C 200.886719 192.089844 199.609375 196.371094 197.542969 200.175781 C 198.652344 200.46875 199.707031 200.859375 200.886719 200.859375 L 225.757812 200.863281 C 226.875 196.566406 227.652344 192.132812 227.644531 187.480469 C 227.652344 157.925781 203.683594 133.957031 174.125 133.957031 L 120.609375 133.957031 C 91.046875 133.964844 67.089844 157.921875 67.085938 187.484375 C 67.089844 217.035156 91.050781 241 120.605469 241.003906 L 161.167969 241.003906 C 151.871094 234.09375 144.363281 224.960938 139.652344 214.242188 Z M 139.652344 214.242188 " fill-opacity="1" fill-rule="nonzero"/></g></g></g></svg>